<?xml version="1.0" encoding="utf-8"?>
<!-- Generator: Adobe Illustrator 25.4.1, SVG Export Plug-In . SVG Version: 6.00 Build 0)  -->
<svg version="1.1" id="Layer_1" xmlns="http://www.w3.org/2000/svg" xmlns:xlink="http://www.w3.org/1999/xlink" x="0px" y="0px"
	 viewBox="0 0 1553.9 191" style="enable-background:new 0 0 1553.9 191;" xml:space="preserve">
<style type="text/css">
	.st0{fill:#6390B1;}
	.st1{fill:#002F5F;}
</style>
<path class="st0" d="M62.8,35L12.2,80.7h24.7l25.9-29L62.8,35z"/>
<path class="st0" d="M62.8,18.1H0.1v62.6h11.7l51-61.9V18.1z"/>
<path class="st0" d="M62.8,65.1L44.4,80.7h18.4V65.1z"/>
<path class="st0" d="M62.6,116.2V91.8l-38.7,34.1L59,86.5H37.6l-24.2,20.6l18.3-20.6H0v62.6h62.6V121l-18.8,16.4L62.6,116.2z"/>
<path class="st0" d="M102.4,86.5l-33.2,28.8v25.8l48.6-54.6H102.4z"/>
<path class="st0" d="M69.2,108.9l19.9-22.4H69.2L69.2,108.9z"/>
<path class="st0" d="M69.2,149.1h62.6V87.8l-62.6,53.4L69.2,149.1z"/>
<g>
	<path class="st1" d="M76.9,0h74v74h-74V0z"/>
	<path class="st1" d="M215.8,75.6c0-11.5-0.2-22.9-0.5-34.4c-11.5,0-26.3,0.7-35.6,1.8c0.5-1.7,0.8-3.5,0.8-5.3
		c0-1.7-0.3-3.3-0.8-5.2c14.3,0.5,28.6,0.8,42.9,0.8s28.6-0.3,42.9-0.8c-0.5,1.8-0.8,3.5-0.8,5.3c0,1.7,0.3,3.5,0.8,5.2
		c-9.3-1.2-24.1-1.8-35.6-1.8c-0.3,11.5-0.5,22.9-0.5,34.4v28.6c0,14.3,0.7,28.8,1.3,43.1c-2.8-0.5-5.5-0.8-8.1-0.8
		c-2.7,0-5.3,0.3-8.1,0.8c0.7-14.3,1.3-28.8,1.3-43.1L215.8,75.6z"/>
	<path class="st1" d="M275.3,69.3c0-15.3-0.3-36.7-1.3-47.9c2.5,0.5,5,0.8,7.5,0.8s5-0.3,7.5-0.8c-1,11.1-1.3,32.6-1.3,47.1v12.6
		h0.3c6.1-9.5,14.6-15,26.6-15c12.3,0,26.6,6,26.6,28.9c0,9.5-0.7,19.5-0.7,30.8c0,7.3,0,14.3,0.3,21.4c-2.5-0.5-4.6-0.8-7-0.8
		c-2.3,0-4.5,0.3-6.8,0.8c0.3-12.1,1.2-24.3,1.2-37.1V100c0-16.3-7.1-25.3-18.1-25.3c-15.5,0-22.4,10-22.4,27.3
		c0,12.6,0.3,34.1,1.3,45.2c-2.5-0.5-5-0.8-7.5-0.8s-5,0.3-7.5,0.8c1-11.1,1.3-32.6,1.3-47.9L275.3,69.3z"/>
	<path class="st1" d="M397.7,66.1c23.3,0,34.4,15.5,34.4,33.9c0,2.2-0.2,4.3-0.3,6.5c-12-0.2-23.8-0.5-35.6-0.5
		c-7.3,0-14.5,0.3-21.8,0.5c-0.2,1.7-0.2,3.2-0.2,4.6c0,17.3,10.3,30.8,28.8,30.8c8.8,0,19.1-5.2,24.9-11.8l0.8,0.5l-1,8.1
		c-6.7,5.3-17.5,10.1-27.8,10.1c-23.9,0-40.4-17-40.4-39.1C359.6,82.9,373.2,66.1,397.7,66.1L397.7,66.1z M374.7,100.2
		c6.8,0.2,14.6,0.5,21.6,0.5c7.3,0,15.1-0.3,22.1-0.5c0-11.8-3.2-28.8-20.4-28.8C381.7,71.4,375.6,88.2,374.7,100.2L374.7,100.2z"/>
	<path class="st1" d="M582.6,75.6c0-14.3-0.7-28.8-1.3-43.1c2.8,0.5,5.5,0.8,8.1,0.8c2.7,0,5.3-0.3,8.1-0.8
		c-0.7,14.3-1.3,28.8-1.3,43.1v28.6c0,14.3,0.7,28.8,1.3,43.1c-2.8-0.5-5.5-0.8-8.1-0.8c-2.7,0-5.3,0.3-8.1,0.8
		c0.7-14.3,1.3-28.8,1.3-43.1v-15c-11.6-0.2-23.1-0.3-34.7-0.3s-23.1,0.2-34.7,0.3v15c0,14.3,0.7,28.8,1.3,43.1
		c-2.8-0.5-5.5-0.8-8.1-0.8c-2.7,0-5.3,0.3-8.2,0.8c0.7-14.3,1.3-28.8,1.3-43.1V75.6c0-14.3-0.7-28.8-1.3-43.1
		c2.8,0.5,5.5,0.8,8.2,0.8s5.3-0.3,8.1-0.8c-0.7,14.3-1.3,28.8-1.3,43.1v5.8c11.6,0.2,23.1,0.5,34.7,0.5s23.1-0.3,34.7-0.5V75.6z"/>
	<path class="st1" d="M626.8,75.8c10-7.5,18-9.6,26.8-9.6c16,0,26.9,9.8,26.9,24.6c0,12.5-0.7,24.8-0.7,38.7c0,5.5,0,12.3,6.5,12.3
		c1,0,2.3,0,3.5-0.7v3.6c-2.3,1-6.3,2.3-10.6,2.3c-7.2,0-10.8-4.6-11.5-10.3c-8,8-14.8,12.1-26.1,12.1c-11.1,0-22.1-7.8-22.1-20.5
		c0-13.3,9-20.5,23.4-22.8c24.1-3.8,24.9-5.2,24.9-11.6c0-11.1-5-21-18.3-21c-8.8,0-17.1,4.2-20.9,11.3h-1.8L626.8,75.8z
		 M667.9,105.3c-11.5,3.8-34.7,2.7-34.7,20.8c0,10.5,7.2,15.8,14.5,15.8c8.5,0,15.8-5.5,19.6-11.6L667.9,105.3z"/>
	<path class="st1" d="M745,66.1c12.1,0,22.6,3.5,26.8,7.3c-1.5,3.3-2.8,7-3.7,11h-1.3c-3.2-5.7-10.8-13-21.3-13
		c-20.1,0-28.3,15.5-28.3,35.9c0,22.8,10.3,34.6,28.8,34.6c8.8,0,19.1-5.2,25-11.8l0.8,0.5c-0.5,2.6-0.8,5.5-1,8.1
		c-6.7,5.3-17.5,10.1-27.8,10.1c-19.3,0-40.4-11.6-40.4-41.4C702.6,78.7,723.7,66.1,745,66.1L745,66.1z"/>
	<path class="st1" d="M789.8,69.3c0-15.3-0.3-36.7-1.3-47.9c2.5,0.5,5,0.8,7.5,0.8s5-0.3,7.5-0.8c-1,11.1-1.3,32.6-1.3,47.9v30.3
		c0,2,0.7,3.2,2,3.2c1.7,0,3.8-1.8,6.5-3.8c4-3,20.3-19.3,30.6-31.1c1.8,0.5,4,0.8,6.3,0.8s4.5-0.3,8.3-0.8
		c-13.8,11.1-26.8,22.3-38.3,33.4c12.7,15.3,26.4,30.8,40.1,46.1c-3.8-0.5-6.6-0.8-9.5-0.8c-2.8,0-5.7,0.3-8.5,0.8
		c-9.6-12.6-25.6-31.3-33.4-39.6c-0.7-0.8-1.7-1.7-2.5-1.7c-1,0-1.7,0.7-1.7,2v10c0,9.8,0.3,19.5,1.3,29.3c-2.5-0.5-5-0.8-7.5-0.8
		s-5,0.3-7.5,0.8c1-11.1,1.3-32.6,1.3-47.9V69.3L789.8,69.3z"/>
	<path class="st1" d="M902.8,66.1c23.3,0,34.4,15.5,34.4,33.9c0,2.2-0.2,4.3-0.3,6.5c-12-0.2-23.8-0.5-35.6-0.5
		c-7.3,0-14.5,0.3-21.8,0.5c-0.2,1.7-0.2,3.2-0.2,4.6c0,17.3,10.3,30.8,28.8,30.8c8.8,0,19.1-5.2,24.9-11.8l0.8,0.5l-1,8.1
		c-6.6,5.3-17.4,10.1-27.8,10.1c-23.9,0-40.4-17-40.4-39.1C864.7,82.9,878.4,66.1,902.8,66.1L902.8,66.1z M879.9,100.2
		c6.8,0.2,14.6,0.5,21.6,0.5c7.3,0,15.1-0.3,22.1-0.5c0-11.8-3.2-28.8-20.4-28.8C886.9,71.4,880.7,88.2,879.9,100.2L879.9,100.2z"/>
	<path class="st1" d="M969,45.5h0.8c-0.7,8.3-1,16.5-1.3,24.6c2.3,0,10-0.2,17.6-0.5c-0.2,1.2-0.2,2.3-0.2,3.5s0,2.3,0.2,3.5
		c-5.8-0.3-13.6-0.3-17.6-0.3c-0.3,1.7-1.2,27.8-1.2,42.2c0,12.5,0.3,25.1,13.5,25.1c1.8,0,5.3-0.5,7.5-1.2v4
		c-3.8,1.3-8.6,2.5-12.8,2.5c-13.8,0-20.5-7.8-20.5-20.8c0-12.1,1-27.1,1.2-51.9c-3.3,0-7,0-11.3,0.3c0.2-1.3,0.3-2.5,0.3-3.8
		c0-1.2-0.2-2.2-0.3-3.3c5,0.3,8.6,0.5,11,0.5c-0.2-4.3-0.3-11.5-0.6-18.6L969,45.5z"/>
	<path class="st1" d="M1015.2,45.5h0.8c-0.7,8.3-1,16.5-1.3,24.6c2.3,0,10-0.2,17.6-0.5c-0.2,1.2-0.2,2.3-0.2,3.5s0,2.3,0.2,3.5
		c-5.8-0.3-13.6-0.3-17.6-0.3c-0.3,1.7-1.2,27.8-1.2,42.2c0,12.5,0.3,25.1,13.5,25.1c1.8,0,5.3-0.5,7.5-1.2v4
		c-3.8,1.3-8.6,2.5-12.8,2.5c-13.8,0-20.4-7.8-20.4-20.8c0-12.1,1-27.1,1.2-51.9c-3.3,0-7,0-11.3,0.3c0.2-1.3,0.3-2.5,0.3-3.8
		c0-1.2-0.2-2.2-0.3-3.3c5,0.3,8.6,0.5,11,0.5c-0.2-4.3-0.3-11.5-0.7-18.6L1015.2,45.5z"/>
	<path class="st1" d="M1192.3,52.8c-6.8-8.1-19.8-16.3-36.6-16.3c-27.6,0-48.7,16.5-48.7,53.4c0,32.6,18.3,52.5,49.6,52.5
		c9.5,0,20.9-1.8,26.6-5.3c0.2-6.7,0.3-13.3,0.3-20.1c0-7.8-0.5-15.8-0.8-22.8c2.2,0.5,5.3,0.8,8,0.8c2.5,0,5-0.2,7.2-0.8
		c-0.3,5-0.7,15.8-0.7,33.8c0,4.3,0.2,9,0.2,13.5c-9.5,3.3-29.4,8-42.4,8c-39.6,0-64.2-20.6-64.2-59.5c0-37.7,25.6-59.5,65-59.5
		c22.4,0,34.6,5.5,42.4,9.6c-1.7,3-3.3,8.7-3.8,12.8h-2.1V52.8z"/>
	<path class="st1" d="M1260.8,81.4c-1.2-1.3-4.8-2.7-8.2-2.7c-10.6,0-17,10.1-17,23.1c0,28.9,0,37.7,0.7,45.4
		c-2.2-0.5-4.5-0.8-6.6-0.8c-2.3,0-4.5,0.3-7,0.8c0.7-8.2,0.7-21.1,0.7-39.7v-5.3c0-8.6,0-20.1-0.7-34.4c2.5,0.5,4.7,0.8,7,0.8
		c2.2,0,4.5-0.3,6.6-0.8c-0.8,8-0.8,12-0.8,16.1l0.3,0.2c6.3-12,14.3-18,21.9-18c2,0,3.2,0.2,5.3,1c-1.2,2.7-1.2,9-1.2,13.5
		L1260.8,81.4z"/>
	<path class="st1" d="M1311.7,66.1c19.3,0,40.4,11.1,40.4,41.4s-21.1,41.4-40.4,41.4s-40.4-11.1-40.4-41.4
		C1271.3,77.3,1292.4,66.1,1311.7,66.1L1311.7,66.1z M1311.7,143.6c19.6,0,25.8-17.4,25.8-36.1c0-18.6-6.2-36.1-25.8-36.1
		s-25.8,17.5-25.8,36.1S1292.1,143.6,1311.7,143.6z"/>
	<path class="st1" d="M1371,94.2c0-7.8-0.2-17.1-0.3-26.4c2.3,0.5,4.8,0.8,7,0.8s4.5-0.3,6.8-0.8c-1,13-1.6,29.9-1.6,46.2
		c0,11.5,2.3,17,5.1,20.1c3.2,3.5,7.8,6.2,14.3,6.2c9.3,0,15.6-4.7,18.5-10.6c3.3-7.1,3.5-8.5,3.5-34.6c0-9,0-19.3-0.3-27.3
		c2.3,0.5,4.5,0.8,7,0.8s4.7-0.3,6.8-0.8c-1,17.3-1.2,32.9-1.2,50.5c0,9.8,0.2,19.6,0.7,28.9c-2.1-0.5-4.3-0.8-6.5-0.8
		s-4.3,0.3-6.5,0.8c0.3-4.8,0.3-9.6,0.3-14.3h-0.3c-5.7,10.3-15.5,16-25.9,16c-17.3,0-27.8-10-27.8-27.3
		C1370.5,110,1371,102.4,1371,94.2L1371,94.2z"/>
	<path class="st1" d="M1461.2,116.2c0-15.3-0.3-36.7-1.3-48.4c2.5,0.5,5,0.8,7.5,0.8s5-0.3,7.5-0.8c-0.8,5.8-1.3,11-1.3,16.3h0.3
		c3.3-7,11.3-18,28.1-18c17,0,33.9,12.3,33.9,40.9c0,28.3-18.5,41.9-35.9,41.9c-12.3,0-21-5.8-26.1-16.3h-0.3v10.5
		c0,15.3,0.3,36.7,1.3,47.9c-2.5-0.5-5-0.8-7.5-0.8s-5,0.3-7.5,0.8c1-11.1,1.3-32.6,1.3-47.9V116.2z M1498.2,73.1
		c-18,0-24.8,16-24.8,35.1c0,22.8,8.5,34.6,24.3,34.6c15.9,0,23.4-15.8,23.4-35.9C1521.2,80.2,1509,73.1,1498.2,73.1L1498.2,73.1z"
		/>
	<path class="st1" d="M1544.9,32.5c5,0,9,4,9,9s-4,9-9,9s-9-4-9-9S1539.9,32.5,1544.9,32.5z M1544.9,49.5c4.4,0,7.9-3.6,7.9-8.1
		c0-4.4-3.5-8.1-7.9-8.1s-7.9,3.6-7.9,8.1C1536.9,45.9,1540.4,49.5,1544.9,49.5z M1541.6,38.9c0-1.1-0.2-2.3-0.3-3.2
		c0.7,0.1,1.4,0.1,2.1,0.1s1.4-0.1,2-0.1c1.8,0,3.2,0.8,3.2,2.5c0,2.1-2.2,3-3.4,3.1c1.3,1.6,3.4,4.6,4.4,5.4v0.1
		c-0.3-0.1-0.7-0.1-1-0.1s-0.7,0.1-1,0.1c-1.2-1.8-2.6-3.6-4-5.4h-0.8v1.8c0,1.2,0.1,2.4,0.2,3.6c-0.3-0.1-0.6-0.1-0.8-0.1
		c-0.3,0-0.6,0.1-0.8,0.1c0.1-1.2,0.2-2.3,0.2-3.5v-4.2L1541.6,38.9z M1542.8,40.8c0.2,0,0.6,0.1,1.1,0.1c1.7,0,3.2-0.7,3.2-2.5
		c0-1.3-1-2.1-2.3-2.1c-0.6,0-1.2,0.1-1.7,0.1c-0.1,0.8-0.2,1.6-0.2,2.4L1542.8,40.8z"/>
</g>
</svg>
